<?xml version="1.0" standalone="no"?>
<!DOCTYPE svg PUBLIC "-//W3C//DTD SVG 1.1//EN" "http://www.w3.org/Graphics/SVG/1.1/DTD/svg11.dtd" >
<svg xmlns="http://www.w3.org/2000/svg">
<metadata>Generated by IcoMoon</metadata>
<defs>
<font id="icomoon" horiz-adv-x="1024">
<font-face units-per-em="1024" ascent="960" descent="-64" />
<missing-glyph horiz-adv-x="1024" />
<glyph unicode="&#x20;" horiz-adv-x="512" d="" />
<glyph unicode="&#xe900;" glyph-name="sass" d="M512 960c282.752 0 512-229.248 512-512s-229.248-512-512-512-512 229.248-512 512 229.248 512 512 512zM410.24 277.42c7.468-27.52 6.656-53.248-1.024-76.46l-2.772-7.68c-1.024-2.604-2.22-5.12-3.328-7.508-5.972-12.372-13.908-23.892-23.68-34.56-29.78-32.384-71.34-44.672-89.172-34.348-19.2 11.18-9.644 56.96 24.916 93.44 37.164 39.168 90.452 64.384 90.452 64.384v0.128l4.608 2.604zM833.108 740.82c-23.124 91.008-173.952 120.916-316.672 70.188-84.864-30.164-176.812-77.568-242.9-139.392-78.636-73.428-91.136-137.428-85.972-164.18 18.22-94.336 147.5-156.032 200.66-201.812v-0.256c-15.66-7.68-130.388-65.236-157.268-124.8-28.8-62.72 4.48-107.564 26.24-113.28 67.2-18.604 136.32 15.36 173.44 70.356 35.84 53.804 32.684 122.924 17.236 156.844 21.164 5.76 46.080 8.32 78.080 4.436 89.644-10.24 107.564-66.56 103.68-89.6-3.84-22.996-22.316-36.436-28.756-40.276-6.4-3.884-8.32-5.12-7.724-7.724 0.64-3.84 3.884-3.84 8.96-3.2 7.040 1.28 46.764 19.2 48.684 62.764 1.92 55.040-50.604 116.436-144 115.2-38.4-0.684-62.764-3.884-80-10.924-1.28 1.92-2.604 3.2-4.48 4.48-57.6 62.080-164.48 105.6-160 188.16 1.28 30.080 12.16 109.396 204.8 205.396 158.080 78.764 284.204 56.96 305.964 8.96 31.276-68.436-67.244-195.84-231.724-214.356-62.72-7.040-95.36 17.236-103.724 26.24-8.916 9.6-10.196 10.24-13.396 8.276-5.12-2.56-1.92-10.88 0-16 5.12-12.8 24.96-35.2 59.564-46.72 30.036-9.6 103.68-15.316 192 19.2 99.156 38.356 176.596 145.28 154.196 234.88l3.116-2.86z" />
<glyph unicode="&#xe901;" glyph-name="github" d="M512 947.328c-282.88 0-512-229.248-512-512 0-226.261 146.688-418.133 350.080-485.76 25.6-4.821 34.987 11.008 34.987 24.619 0 12.16-0.427 44.373-0.64 87.040-142.421-30.891-172.459 68.693-172.459 68.693-23.296 59.093-56.96 74.88-56.96 74.88-46.379 31.744 3.584 31.104 3.584 31.104 51.413-3.584 78.421-52.736 78.421-52.736 45.653-78.293 119.851-55.68 149.12-42.581 4.608 33.109 17.792 55.68 32.427 68.48-113.707 12.8-233.216 56.832-233.216 253.013 0 55.893 19.84 101.547 52.693 137.387-5.76 12.928-23.040 64.981 4.48 135.509 0 0 42.88 13.739 140.8-52.48 40.96 11.392 84.48 17.024 128 17.28 43.52-0.256 87.040-5.888 128-17.28 97.28 66.219 140.16 52.48 140.16 52.48 27.52-70.528 10.24-122.581 5.12-135.509 32.64-35.84 52.48-81.493 52.48-137.387 0-196.693-119.68-240-233.6-252.587 17.92-15.36 34.56-46.763 34.56-94.72 0-68.523-0.64-123.563-0.64-140.203 0-13.44 8.96-29.44 35.2-24.32 204.843 67.157 351.403 259.157 351.403 485.077 0 282.752-229.248 512-512 512z" />
<glyph unicode="&#xe902;" glyph-name="bem" d="M0 739.712h239.36v-70.4h-239.36zM0 870.485h239.36v-70.4h-239.36zM429.525 609.963h-429.525v-70.4h413.44c45.227 0 150.869-1.024 190.080-64.427v39.253c-19.115 62.379-75.435 95.573-173.995 95.573zM430.507 479.189h-430.507v-70.4h413.44c100.565 0 163.925-4.053 190.080-18.133v31.189c-20.096 49.28-104.576 57.344-173.013 57.344zM429.525 147.243h-429.525v70.357h413.44c45.227 0 150.869 1.024 190.080 64.384v-39.253c-19.115-62.336-75.435-95.573-173.995-95.573zM430.507 278.016h-430.507v70.4h413.44c100.565 0 163.925 4.011 190.080 18.091v-31.147c-20.096-49.323-104.576-57.344-173.013-57.344zM708.139 25.515h315.861v43.264h-306.773c-27.179 0-91.563 0.981-114.688 38.229v-24.149c11.093-37.205 45.227-57.344 105.6-57.344zM707.157 105.003h315.861v43.221h-305.792c-61.397 0-99.584 2.005-114.688 11.093v-19.115c12.075-30.208 63.36-35.2 104.619-35.2z" />
<glyph unicode="&#xe903;" glyph-name="npm" d="M75.221 960c-41.685 0-75.221-33.536-75.221-75.221v-873.557c0-41.685 33.536-75.221 75.221-75.221h873.557c41.685 0 75.221 33.536 75.221 75.221v873.557c0 41.685-33.536 75.221-75.221 75.221zM218.88 732.885l590.379-0.811-0.384-590.336h-147.797l0.427 442.965h-147.456l-0.341-442.624h-295.552z" />
<glyph unicode="&#xe904;" glyph-name="antdesign" d="M744.58 674.953c21.722 21.606 21.722 56.815 0 78.421l-79.795 79.799c-21.15 21.15-57.506 57.506-108.949 108.834-24.235 23.667-63.445 23.437-87.458-0.572l-450.202-449.86c-11.226-11.153-18.175-26.6-18.175-43.669s6.948-32.516 18.171-43.666l450.094-449.752c11.197-11.178 26.655-18.090 43.727-18.090s32.53 6.912 43.728 18.091l188.748 188.633c21.717 21.606 21.717 56.819 0 78.426-10.065 10.017-23.945 16.209-39.27 16.209s-29.205-6.192-39.273-16.211l0.002 0.002-142.903-143.13c-5.943-5.948-15.206-5.948-21.15 0l-359.543 359.202c-5.948 5.943-5.948 15.202 0 21.146l359.428 359.202c0.457 0.461 1.028 0.802 1.489 1.259 5.943 4.689 14.174 4.233 19.661-1.259l143.134-143.019c21.717-21.717 56.93-21.717 78.537 0zM392.811 445.619c0-67.055 54.409-121.414 121.525-121.414s121.525 54.359 121.525 121.414v0c0 67.055-54.409 121.414-121.525 121.414s-121.525-54.359-121.525-121.414v0zM1005.811 489.749l-140.501 139.819c-21.726 21.602-56.934 21.602-78.541-0.119-10.064-10.021-16.292-23.889-16.292-39.211s6.228-29.189 16.29-39.209l0.002-0.002 94.886-94.775c5.943-5.943 5.943-15.206 0-21.15l-93.517-93.397c-10.067-10.022-16.297-23.891-16.297-39.215s6.23-29.193 16.295-39.213l0.002-0.002c10.065-10.017 23.945-16.209 39.27-16.209s29.205 6.192 39.273 16.211l139.241 139.13c11.168 11.159 18.076 26.58 18.076 43.614 0 17.089-6.953 32.555-18.184 43.722l-0.003 0.003z" />
<glyph unicode="&#xe905;" glyph-name="git" d="M1004.629 493.653l-447.104 447.061c-25.771 25.728-67.499 25.728-93.355 0l-92.629-92.8 117.76-117.76c27.52 9.173 58.837 2.987 80.597-18.816 22.016-21.973 28.075-53.675 18.688-81.067l113.408-113.493c27.52 9.515 59.179 3.328 81.067-18.56 30.763-30.72 30.763-80.384 0-111.104-30.677-30.677-80.256-30.677-110.933 0-22.997 23.083-28.757 57.045-17.237 85.163l-106.197 105.643v-278.4c7.509-3.669 14.592-8.661 20.821-14.848 30.421-30.763 30.421-80.341 0-110.933-30.677-30.763-80.597-30.763-111.317 0-30.677 30.677-30.677 80.171 0 110.848 7.765 7.68 16.512 13.483 25.813 17.323v281.131c-9.259 3.883-18.091 9.472-25.6 17.109-23.253 23.253-28.843 57.259-16.896 85.717l-115.712 116.267-306.603-306.389c-25.6-25.813-25.6-67.584 0-93.397l447.147-447.019c25.771-25.771 67.499-25.771 93.269 0l445.013 445.013c25.813 25.728 25.813 67.499 0 93.312z" />
<glyph unicode="&#xe906;" glyph-name="webpack" d="M947.145 170.752l-416.849-234.761v182.848l259.721 142.242 157.124-90.325zM975.659 196.463v490.965l-152.542-87.654v-315.563zM76.855 170.752l416.849-234.761v182.848l-259.721 142.242-157.124-90.325zM48.341 196.463v490.965l152.538-87.654v-315.563zM66.189 719.194l427.516 240.811v-176.785l-275.972-151.181zM957.815 719.194l-427.52 240.811v-176.785l275.972-151.185 151.543 87.155zM493.709 160.431l-256.239 140.258v277.939l256.23-147.307v-270.891zM530.295 160.431l256.226 140.258v277.939l-256.226-147.307zM254.822 610.795l257.225 140.864 257.233-140.864-257.229-147.904z" />
<glyph unicode="&#xe907;" glyph-name="prettier" d="M365.696-39.637c0-13.455-10.908-24.363-24.363-24.363v0h-243.797c-13.467 0-24.384 10.917-24.384 24.384s10.917 24.384 24.384 24.384v0h243.797c13.483 0 24.363-10.923 24.363-24.405zM341.333 82.347h-48.768c-13.467 0-24.384-10.917-24.384-24.384s10.917-24.384 24.384-24.384v0h48.768c13.467 0 24.384 10.917 24.384 24.384s-10.917 24.384-24.384 24.384v0zM97.536 33.579h97.451c13.467 0 24.384 10.917 24.384 24.384s-10.917 24.384-24.384 24.384v0h-97.451c-13.467 0-24.384-10.917-24.384-24.384s10.917-24.384 24.384-24.384v0zM341.333 179.797h-243.797c-13.467 0-24.384-10.917-24.384-24.384s10.917-24.384 24.384-24.384v0h243.797c13.467 0 24.384 10.917 24.384 24.384s-10.917 24.384-24.384 24.384v0zM682.667 277.333h-438.869c-13.467 0-24.384-10.917-24.384-24.384s10.917-24.384 24.384-24.384v0h438.869c13.467 0 24.384 10.917 24.384 24.384s-10.917 24.384-24.384 24.384v0zM97.536 228.565h48.768c13.467 0 24.384 10.917 24.384 24.384s-10.917 24.384-24.384 24.384v0h-48.768c-13.467 0-24.384-10.917-24.384-24.384s10.917-24.384 24.384-24.384v0zM828.971 374.869h-146.304c-13.467 0-24.384-10.917-24.384-24.384s10.917-24.384 24.384-24.384v0h146.304c13.467 0 24.384 10.917 24.384 24.384s-10.917 24.384-24.384 24.384v0zM390.101 326.101h195.029c13.467 0 24.384 10.917 24.384 24.384s-10.917 24.384-24.384 24.384v0h-195.029c-13.467 0-24.384-10.917-24.384-24.384s10.917-24.384 24.384-24.384v0zM97.536 326.101h195.029c13.467 0 24.384 10.917 24.384 24.384s-10.917 24.384-24.384 24.384v0h-195.029c-13.467 0-24.384-10.917-24.384-24.384s10.917-24.384 24.384-24.384v0zM877.653 472.32h-389.973c-13.455 0-24.363-10.908-24.363-24.363s10.908-24.363 24.363-24.363h390.059c13.455 0 24.363 10.908 24.363 24.363s-10.908 24.363-24.363 24.363v0zM414.464 448c0 13.455-10.908 24.363-24.363 24.363v0h-146.304c-13.455 0-24.363-10.908-24.363-24.363s10.908-24.363 24.363-24.363h146.304c13.455 0 24.363 10.908 24.363 24.363v0zM97.536 423.637h48.768c13.455 0 24.363 10.908 24.363 24.363s-10.908 24.363-24.363 24.363h-48.768c-13.455 0-24.363-10.908-24.363-24.363s10.908-24.363 24.363-24.363v0zM926.464 569.899h-243.797c-13.467 0-24.384-10.917-24.384-24.384s10.917-24.384 24.384-24.384v0h243.797c13.467 0 24.384 10.917 24.384 24.384s-10.917 24.384-24.384 24.384v0zM97.536 521.131h243.797c13.467 0 24.384 10.917 24.384 24.384s-10.917 24.384-24.384 24.384v0h-243.797c-13.467 0-24.384-10.917-24.384-24.384s10.917-24.384 24.384-24.384v0zM658.304 643.029c0-13.44 10.88-24.363 24.363-24.363h243.797c13.467 0 24.384 10.917 24.384 24.384s-10.917 24.384-24.384 24.384v0h-243.797c0 0 0 0 0 0-13.455 0-24.363-10.908-24.363-24.363 0-0.015 0-0.030 0-0.045v0.002zM292.565 667.435c-13.467 0-24.384-10.917-24.384-24.384s10.917-24.384 24.384-24.384v0h48.768c13.467 0 24.384 10.917 24.384 24.384s-10.917 24.384-24.384 24.384v0h-48.768zM97.536 618.667h97.451c13.467 0 24.384 10.917 24.384 24.384s-10.917 24.384-24.384 24.384v0h-97.451c-13.467 0-24.384-10.917-24.384-24.384s10.917-24.384 24.384-24.384v0zM804.565 740.565c0-13.44 10.923-24.363 24.405-24.363h48.725c13.467 0 24.384 10.917 24.384 24.384s-10.917 24.384-24.384 24.384v0h-48.683c-0.013 0-0.028 0-0.043 0-13.455 0-24.363-10.908-24.363-24.363 0-0.015 0-0.030 0-0.045v0.002zM755.797 740.565c0 0.013 0 0.028 0 0.043 0 13.455-10.908 24.363-24.363 24.363 0 0 0 0 0 0h-195.115c-13.467 0-24.384-10.917-24.384-24.384s10.917-24.384 24.384-24.384v0h195.072c13.455 0 24.363 10.908 24.363 24.363v0zM97.536 716.203h341.333c13.467 0 24.384 10.917 24.384 24.384s-10.917 24.384-24.384 24.384v0h-341.333c-13.467 0-24.384-10.917-24.384-24.384s10.917-24.384 24.384-24.384v0zM316.971 838.101c0-13.483 10.88-24.405 24.363-24.405h487.637c13.467 0 24.384 10.917 24.384 24.384s-10.917 24.384-24.384 24.384v0h-487.637c-13.455 0-24.363-10.908-24.363-24.363v0zM97.536 813.696h146.261c13.467 0 24.384 10.917 24.384 24.384s-10.917 24.384-24.384 24.384v0h-146.261c-13.467 0-24.384-10.917-24.384-24.384s10.917-24.384 24.384-24.384v0zM97.536 911.232h585.131c13.467 0 24.384 10.917 24.384 24.384s-10.917 24.384-24.384 24.384h-585.131c-13.467 0-24.384-10.917-24.384-24.384s10.917-24.384 24.384-24.384v0z" />
<glyph unicode="&#xe908;" glyph-name="redux" d="M709.717 255.829c37.12 3.2 65.835 35.84 64 74.837-2.005 38.997-33.963 70.315-72.917 70.315h-2.603c-39.16-1.44-70.36-33.533-70.36-72.914 0-0.902 0.016-1.799 0.049-2.693l-0.004 0.129c1.28-20.437 9.643-37.077 21.077-49.195-44.715-86.955-111.829-150.869-213.547-204.587-68.395-35.755-140.629-49.237-210.944-39.68-58.795 8.32-104.789 34.56-132.949 76.757-42.155 63.957-45.995 132.949-10.88 201.984 25.6 49.92 63.957 86.315 89.557 104.235-6.904 18.342-13.103 40.43-17.491 63.164l-0.429 2.67c-189.312-135.595-170.027-320.939-112.512-408.533 42.837-63.915 130.432-104.789 226.304-104.789 25.6 0 52.48 1.877 78.635 8.277 166.272 31.957 292.181 131.669 364.416 278.699zM937.899 415.659c-98.987 116.395-244.821 180.309-411.051 180.309h-21.76c-10.795 23.637-35.712 38.357-63.915 38.357h-1.92c-40.235 0-71.595-34.56-70.272-74.795 1.28-38.315 33.877-70.315 72.875-70.315h3.157c28.86 1.149 53.26 19.094 63.781 44.281l0.176 0.476h23.68c98.517 0 191.787-28.757 276.821-84.992 65.152-42.88 111.872-99.115 138.112-166.272 22.955-54.955 21.717-108.672-1.92-153.472-36.48-70.272-97.877-107.392-179.029-107.392-51.157 0-100.992 16-126.592 27.477-15.36-12.715-40.96-33.835-59.477-46.635 56.235-25.515 113.152-40.235 168.107-40.235 124.672 0 217.344 70.272 252.544 138.069 38.315 76.715 35.157 205.824-62.72 316.416zM276.907 232.875c1.28-38.357 33.835-70.315 72.875-70.315h2.56c39.071 0.91 70.396 32.798 70.396 72.003 0 1.207-0.030 2.407-0.088 3.6l0.007-0.168c0 38.4-33.237 70.272-72.235 70.272h-2.56c-2.56 0-6.4 0-9.643-1.237-53.035 89.515-75.435 185.472-67.072 288.939 5.12 77.995 30.72 145.792 76.672 202.027 38.4 47.957 110.635 71.68 159.872 72.875 138.069 2.603 195.627-169.429 200.064-237.824l63.915-19.2c-14.72 209.749-145.067 319.701-269.739 319.701-117.077 0-225.024-85.035-268.544-209.707-59.435-166.187-20.437-326.059 52.48-453.931-6.4-8.32-10.24-22.997-8.96-37.035z" />
<glyph unicode="&#xe909;" glyph-name="reactrouter" d="M517.035 726.784c-0.26 0.002-0.568 0.004-0.876 0.004-9.144 0-17.997-1.247-26.397-3.581l0.692 0.164c-11.861-2.859-29.952-14.165-40.661-24.875-17.493-18.048-20.907-25.984-28.245-62.677-3.413-18.048 17.493-61.013 36.139-73.984 19.2-13.525 46.293-21.419 88.107-25.941 60.971-6.827 78.507-27.136 78.507-93.739 0-58.752-16.427-74.539-83.627-81.323-72.832-7.339-110.080-35.584-117.973-90.325-4.523-33.323 17.493-75.093 48-89.216 69.419-32.768 134.4 8.448 147.925 93.696 9.003 54.784 26.539 70.059 85.248 74.539 67.755 5.675 102.784 28.8 115.755 76.245 11.861 43.52-12.971 92.032-55.339 108.971-11.264 4.523-37.248 10.155-57.6 12.416-63.787 6.827-80.171 18.091-86.955 59.307-9.6 57.045-13.525 66.645-33.877 89.173-16.956 19.022-41.476 30.988-68.793 31.147h-0.028zM312.875 540.757c-0.555 0.012-1.209 0.019-1.864 0.019-6.852 0-13.528-0.753-19.95-2.181l0.609 0.114c-62.677-13.568-92.587-87.509-57.6-140.587 50.261-75.691 168.277-40.661 169.387 50.219 0.512 50.901-41.813 91.435-90.581 92.416zM89.131 354.56c-6.543-0.162-12.809-0.962-18.854-2.341l0.636 0.122c-92.075-20.309-95.445-154.709-4.523-178.432 22.613-6.187 24.832-6.187 47.403-0.555 50.816 13.568 79.616 62.123 66.091 111.232-11.861 43.52-48.811 70.997-90.752 69.973zM934.955 354.219c-9.941-0.085-20.352-2.475-33.451-6.912-59.307-20.352-79.616-89.259-41.813-142.336 23.765-33.877 83.627-45.141 120.32-22.016 60.416 37.291 58.155 130.432-3.968 159.829-16.213 7.936-28.288 11.563-41.088 11.435z" />
<glyph unicode="&#xe90a;" glyph-name="react" d="M607.146 447.892c0-52.674-42.689-95.378-95.358-95.403h-0.002c-52.689 0-95.403 42.713-95.403 95.403v0c0 52.674 42.689 95.378 95.358 95.403h0.002c52.689 0 95.403-42.713 95.403-95.403v0zM720.127 903.999c-57.429 0-132.565-40.96-208.555-111.872-75.947 70.528-151.125 111.019-208.512 111.019-17.493 0-33.408-3.968-47.189-11.861-58.667-33.835-71.808-139.264-41.515-271.573-129.877-40.107-214.357-104.235-214.357-171.819 0-67.84 84.907-132.139 215.168-171.947-30.037-132.821-16.64-238.421 42.155-272.213 13.653-7.979 29.44-11.733 47.019-11.733 57.387 0 132.565 40.96 208.555 111.957 75.947-70.571 151.125-111.061 208.512-111.061 17.493 0 33.408 3.84 47.189 11.733 58.624 33.792 71.808 139.221 41.515 271.573 129.408 39.765 213.888 104.021 213.888 171.691 0 67.84-84.907 132.139-215.168 172.032 30.037 132.693 16.64 238.379-42.155 272.213-13.568 7.851-29.355 11.819-46.592 11.861zM719.914 857.492v-0.256c9.6 0 17.323-1.877 23.808-5.419 28.416-16.299 40.747-78.293 31.147-158.037-2.304-19.627-6.059-40.32-10.667-61.44-40.96 10.069-85.589 17.792-132.565 22.784-28.16 38.613-57.387 73.685-86.827 104.405 67.925 63.147 131.712 97.792 175.147 97.92zM303.060 856.639c43.179 0 107.264-34.475 175.36-97.28-29.269-30.72-58.453-65.579-86.187-104.192-47.232-4.992-91.904-12.715-132.821-22.955-4.779 20.907-8.32 41.131-10.837 60.587-9.813 79.701 2.304 141.653 30.464 158.165 8.107 3.84 17.067 5.419 24.021 5.632zM511.359 726.506c19.413-19.968 38.827-42.325 58.027-66.731-18.773 0.853-37.973 1.451-57.387 1.451-19.627 0-39.040-0.427-58.027-1.451 18.773 24.405 38.187 46.763 57.387 66.773zM511.999 614.463c31.573 0 63.019-1.451 93.952-3.968 17.323-24.832 34.219-51.328 50.475-79.36 15.872-27.307 30.293-55.040 43.435-83.029-13.141-27.947-27.563-55.893-43.221-83.2-16.213-28.16-32.981-54.955-50.347-79.787-31.061-2.688-62.549-4.181-94.293-4.181-31.573 0-63.019 1.493-93.952 3.968-17.323 24.832-34.219 51.371-50.475 79.36-15.872 27.307-30.293 55.040-43.435 83.029 12.928 28.032 27.563 56.021 43.221 83.371 16.213 28.16 32.981 54.869 50.347 79.701 31.061 2.731 62.549 4.181 94.293 4.181zM356.906 603.626c-10.24-16.085-20.48-32.555-30.037-49.493-9.6-16.64-18.56-33.365-27.093-50.091-11.307 27.989-20.907 55.893-28.843 83.072 27.307 6.4 56.107 12.075 85.973 16.469zM666.666 603.626c29.653-4.395 58.24-9.813 85.589-16.512-7.68-26.965-17.28-54.699-28.16-82.475-8.533 16.64-17.493 33.408-27.307 50.091-9.6 16.725-19.84 33.024-30.080 48.896zM797.354 574.826c20.651-6.4 40.277-13.525 58.667-21.248 73.899-31.573 121.685-72.875 121.685-105.643-0.213-32.768-48-74.24-121.899-105.6-17.92-7.68-37.547-14.592-57.813-21.035-11.947 40.875-27.563 83.456-46.933 127.147 19.2 43.392 34.56 85.76 46.293 126.464zM225.834 574.655c11.861-40.96 27.52-83.499 46.933-127.147-19.2-43.392-34.645-85.76-46.336-126.464-20.651 6.4-40.277 13.568-58.453 21.333-73.899 31.445-121.685 72.789-121.685 105.557s47.787 74.325 121.685 105.643c17.92 7.68 37.547 14.592 57.856 21.077zM724.095 392.042c11.307-28.032 20.907-55.979 28.843-83.115-27.307-6.699-56.149-12.373-86.016-16.64 10.24 16 20.48 32.512 30.080 49.408 9.6 16.64 18.56 33.621 27.136 50.347zM299.775 391.188c8.533-16.725 17.493-33.408 27.307-50.133 9.813-16.64 19.84-32.939 30.080-48.768-29.653 4.352-58.24 9.813-85.589 16.469 7.68 26.88 17.323 54.699 28.16 82.475zM764.586 263.743c4.779-21.035 8.533-41.301 10.837-60.715 9.813-79.701-2.304-141.653-30.464-158.208-6.272-3.84-14.421-5.461-24.021-5.461-43.179 0-107.264 34.432-175.36 97.28 29.269 30.72 58.453 65.536 86.187 104.107 47.232 5.035 91.904 12.8 132.821 23.040zM259.839 263.316c40.96-9.984 85.589-17.707 132.565-22.699 28.16-38.613 57.387-73.685 86.827-104.363-68.053-63.275-131.925-97.92-175.36-97.92-9.387 0.213-17.323 2.133-23.595 5.632-28.416 16.213-40.747 78.251-31.147 157.995 2.304 19.627 6.059 40.277 10.667 61.355zM454.399 236.010c18.773-0.853 37.973-1.451 57.387-1.451 19.627 0 39.040 0.427 58.027 1.451-18.773-24.405-38.187-46.72-57.387-66.773-19.413 20.053-38.827 42.368-58.027 66.773z" />
<glyph unicode="&#xe90b;" glyph-name="typescript" d="M48 960c-26.581 0-48-21.419-48-48v-928c0-26.581 21.419-48 48-48h928c26.581 0 48 21.419 48 48v928c0 26.581-21.419 48-48 48zM788.821 544c26.112 0 49.237-1.579 69.419-4.736 20.965-3.194 39.728-8.252 57.583-15.138l-1.861 0.631v-104.875c-7.895 5.536-16.902 10.68-26.376 14.973l-1.059 0.43c-8.416 3.926-18.575 7.705-29.059 10.716l-1.533 0.377c-18.201 5.273-39.128 8.378-60.756 8.533h-0.087c-12.8 0-24.448-1.195-34.944-3.669-10.039-2.187-18.925-5.754-26.994-10.552l0.412 0.227c-7.253-4.437-12.8-9.771-16.768-15.957-3.748-5.776-5.976-12.84-5.976-20.424 0-0.17 0.001-0.339 0.003-0.508v0.026c0-8.363 2.261-15.915 6.656-22.571 4.437-6.656 10.752-12.971 18.901-18.944s18.048-11.776 29.696-17.493c11.648-5.76 24.832-11.691 39.509-17.749 20.053-8.405 38.059-17.365 54.016-26.795 15.957-9.472 29.653-20.181 41.088-32.128 11.435-11.904 20.139-25.515 26.197-40.832s9.131-33.109 9.131-53.461c0-28.032-5.333-51.627-15.915-70.656-10.587-18.976-25.163-34.548-42.683-45.989l-0.496-0.304c-18.188-11.707-39.457-20.537-62.239-25.222l-1.207-0.207c-24.149-5.12-49.621-7.68-76.373-7.68-0.551-0.003-1.204-0.004-1.856-0.004-27.1 0-53.605 2.548-79.288 7.417l2.637-0.416c-24.205 4.266-45.852 11.581-65.871 21.655l1.359-0.62v112.213c36.964-31.607 85.256-50.931 138.055-51.2h0.057c14.208 0 26.624 1.28 37.205 3.84 10.624 2.56 19.456 6.144 26.581 10.667 7.083 4.608 12.373 9.984 15.915 16.213 3.297 5.993 5.236 13.135 5.236 20.729 0 9.677-3.149 18.618-8.478 25.855l0.085-0.12c-6.385 8.392-13.966 15.471-22.57 21.122l-0.342 0.211c-9.826 6.62-21.124 12.944-32.938 18.334l-1.494 0.61c-6.716 3.473-20.866 9.726-35.16 15.706l-7.806 2.897c-39.168 16.341-68.352 36.352-87.595 59.947-19.2 23.595-28.843 52.139-28.843 85.547 0 26.197 5.248 48.683 15.744 67.499s24.747 34.304 42.837 46.464c17.96 12.011 38.925 21.276 61.42 26.579l1.3 0.258c22.165 5.453 47.61 8.581 73.786 8.581 0.61 0 1.219-0.002 1.828-0.005h-0.094zM144 535.979h408.021v-92.416h-146.432v-411.563h-115.925v411.563h-145.664z" />
<glyph unicode="&#xe90c;" glyph-name="javascript" d="M0 960h1024v-1024h-1024v1024zM940.117 180.224c-7.467 46.72-37.888 85.973-128.128 122.581-31.403 14.72-66.304 24.96-76.672 48.64-3.883 14.080-4.48 21.76-1.963 30.080 6.4 27.563 39.040 35.84 64.64 28.16 16.64-5.12 32-17.92 41.643-38.4 44.117 28.843 44.117 28.843 74.88 48-11.52 17.92-17.237 25.643-25.003 33.28-26.88 30.080-62.677 45.44-120.917 44.117l-30.080-3.797c-28.843-7.040-56.32-22.4-72.96-42.88-48.64-55.083-34.603-151.083 24.277-190.763 58.24-43.52 143.403-53.077 154.283-94.080 10.24-49.92-37.12-65.92-83.883-60.16-34.603 7.68-53.76 25.003-74.88 57.003l-78.080-44.843c8.96-20.48 19.2-29.397 34.56-47.317 74.24-74.923 259.84-71.083 293.163 42.837 1.237 3.84 10.24 30.080 3.157 70.4l1.963-2.859zM556.843 489.344h-95.915c0-82.688-0.384-164.864-0.384-247.68 0-52.565 2.688-100.821-5.888-115.669-14.080-29.397-50.347-25.643-66.816-20.48-16.896 8.363-25.472 19.883-35.413 36.48-2.688 4.48-4.693 8.363-5.419 8.363l-77.867-48c13.013-26.88 32-50.005 56.491-64.725 36.48-21.76 85.504-28.8 136.832-17.28 33.408 9.643 62.208 29.483 77.269 60.203 21.76 39.68 17.152 88.32 16.939 142.763 0.512 87.637 0 175.317 0 263.637l0.171 2.389z" />
<glyph unicode="&#xe90d;" glyph-name="css3" d="M64 960h896l-81.493-920.021-367.488-103.979-365.44 104.021-81.579 919.979zM793.173 771.712l-562.347 0.128 9.088-111.872 432-0.085-10.88-115.883h-283.307l10.24-109.781h263.765l-15.616-150.315-124.16-34.304-126.123 34.56-8.021 90.027h-111.36l12.373-164.48 233.173-72.661 229.248 65.28 51.925 569.344z" />
<glyph unicode="&#xe90e;" glyph-name="html5" d="M64 960h896l-81.493-920.021-367.488-103.979-365.397 104.021-81.621 919.979zM363.989 544l-9.899 115.968 429.184-0.128 9.813 111.872-562.176 0.128 29.781-341.76h389.376l-13.909-146.176-124.16-34.304-126.080 34.56-8.021 90.027h-111.317l14.080-177.963 231.339-61.867 229.504 61.568 31.744 348.032h-409.259z" />
<glyph unicode="&#xe90f;" glyph-name="eslint" d="M309.632 570.368l194.517 112.299c2.253 1.318 4.961 2.097 7.851 2.097s5.598-0.779 7.925-2.137l-0.075 0.040 194.517-112.299c4.727-2.776 7.851-7.834 7.851-13.622 0-0.011 0-0.022 0-0.033v0.002-224.555c-0.014-5.781-3.133-10.831-7.777-13.57l-0.074-0.040-194.517-112.299c-2.253-1.318-4.961-2.097-7.851-2.097s-5.598 0.779-7.925 2.137l0.075-0.040-194.517 112.299c-4.727 2.776-7.851 7.834-7.851 13.622 0 0.011 0 0.022 0 0.033v-0.002 224.512c0 0.002 0 0.004 0 0.006 0 5.795 3.123 10.861 7.777 13.607l0.074 0.040zM1017.685 468.053l-232.363 404.267c-8.448 14.635-24.064 25.429-40.96 25.429h-464.683c-16.896 0-32.512-10.795-40.96-25.429l-232.363-403.371c-3.974-6.846-6.32-15.064-6.32-23.829s2.346-16.984 6.443-24.060l-0.123 0.231 232.405-400.981c8.405-14.592 24.021-22.059 40.917-22.059h464.768c16.853 0 32.427 7.253 40.917 21.845l232.363 401.621c3.973 6.628 6.322 14.624 6.322 23.168s-2.349 16.54-6.438 23.376l0.115-0.208zM825.301 273.664c-0.172-6.176-3.599-11.514-8.62-14.377l-0.084-0.044-296.064-170.752c-2.402-1.397-5.286-2.221-8.363-2.221s-5.961 0.824-8.443 2.264l0.081-0.043-296.235 170.752c-5.122 2.897-8.566 8.238-8.746 14.397l-0.001 0.025v341.589c0 5.973 3.541 11.477 8.704 14.421l295.936 170.752c5.12 2.987 11.605 2.987 16.725 0l296.235-170.795c5.14-2.887 8.599-8.23 8.789-14.395l0.001-0.026z" />
<glyph unicode="&#xe910;" glyph-name="cssmodules" d="M840.747 868.395v-840.789h-840.747v840.789h840.747zM6.016 33.621h828.715v828.757h-828.715v-828.757zM115.285 479.232c18.261 0 32.427-4.821 42.496-14.421s15.659-20.565 16.768-32.768h-19.029c-1.848 8.876-6.459 16.463-12.878 22.016l-0.050 0.042c-6.4 5.461-15.445 8.149-27.093 8.149-14.208 0-25.685-4.992-34.475-15.019-8.704-9.941-13.056-25.173-13.056-45.824 0-16.896 3.925-30.592 11.776-41.131 7.936-10.453 19.712-15.701 35.328-15.701 14.421 0 25.387 5.547 32.896 16.597 4.011 5.803 6.955 13.483 8.96 22.955h19.029c-1.707-15.189-7.339-27.904-16.896-38.187-11.435-12.373-26.88-18.517-46.336-18.517-16.725 0-30.805 5.035-42.197 15.189-14.933 13.44-22.485 34.133-22.485 62.123 0 21.291 5.632 38.699 16.896 52.309 12.16 14.805 28.971 22.187 50.347 22.187zM212.565 377.685c0.427-8.192 2.389-14.848 5.76-19.925 6.485-9.557 17.92-14.336 34.261-14.336 7.339 0 13.995 1.024 20.053 3.115 11.605 4.053 17.451 11.349 17.451 21.803 0 7.851-2.475 13.44-7.381 16.768-4.949 3.285-12.757 6.144-23.339 8.533l-19.541 4.437c-12.757 2.859-21.76 6.059-27.093 9.515-9.131 6.016-13.739 15.019-13.739 27.008 0 12.928 4.48 23.595 13.44 31.872 8.96 8.32 21.675 12.459 38.101 12.459 15.104 0 27.947-3.627 38.485-10.965 10.581-7.253 15.872-18.901 15.872-34.987h-18.347c-0.517 6.704-2.788 12.79-6.35 17.91l0.078-0.118c-5.973 7.552-16.085 11.307-30.293 11.307-11.52 0-19.84-2.432-24.875-7.253-4.638-4.175-7.543-10.195-7.552-16.894v-0.002c0-7.083 2.987-12.245 8.832-15.531 3.84-2.091 12.587-4.693 26.197-7.851l20.224-4.608c9.771-2.219 17.28-5.248 22.613-9.131 9.131-6.741 13.696-16.512 13.696-29.312 0-16-5.803-27.392-17.493-34.261-11.12-6.503-24.484-10.343-38.744-10.343-0.584 0-1.166 0.006-1.747 0.019l0.087-0.002c-17.92 0-32 4.608-42.112 13.739-10.112 9.088-15.104 21.419-14.933 36.992h18.347zM346.411 377.685c0.469-8.192 2.389-14.848 5.803-19.925 6.485-9.557 17.92-14.336 34.261-14.336 7.296 0 13.995 1.024 20.011 3.115 11.648 4.053 17.493 11.349 17.493 21.803 0 7.851-2.475 13.44-7.381 16.768-4.992 3.285-12.8 6.144-23.381 8.533l-19.499 4.437c-12.8 2.859-21.803 6.059-27.093 9.515-9.173 6.016-13.739 15.019-13.739 27.008 0 12.928 4.48 23.595 13.44 31.872 8.96 8.32 21.675 12.459 38.059 12.459 15.147 0 27.947-3.627 38.485-10.965 10.624-7.253 15.915-18.901 15.915-34.987h-18.347c-0.53 6.708-2.816 12.793-6.392 17.909l0.077-0.117c-5.973 7.552-16.043 11.307-30.293 11.307-11.52 0-19.797-2.432-24.832-7.253-4.638-4.175-7.543-10.195-7.552-16.894v-0.002c0-7.083 2.944-12.245 8.832-15.531 3.84-2.091 12.587-4.693 26.197-7.851l20.224-4.608c9.728-2.219 17.237-5.248 22.571-9.131 9.131-6.741 13.739-16.512 13.739-29.312 0-16-5.845-27.392-17.493-34.261-11.12-6.503-24.484-10.343-38.744-10.343-0.584 0-1.166 0.006-1.747 0.019l0.087-0.002c-17.92 0-32 4.608-42.112 13.739-10.155 9.088-15.147 21.419-14.933 36.992h18.347zM82.005 224.085l41.387-121.899 41.173 121.899h27.648v-144.213h-18.517v85.12c0 2.987 0.043 7.808 0.171 14.635s0.213 14.080 0.213 21.888l-41.131-121.6h-19.328l-41.387 121.6v-4.437c0-3.541 0-8.96 0.171-16.213 0.171-7.168 0.299-12.459 0.299-15.872v-85.077h-18.645v144.171h27.947zM284.373 227.968c25.472 0 44.288-8.149 56.533-24.533 9.557-12.757 14.336-29.056 14.336-48.939 0-21.547-5.461-39.424-16.384-53.717-12.8-16.725-31.147-25.131-54.869-25.131-22.187 0-39.637 7.339-52.309 22.016-11.307 14.080-16.981 32-16.981 53.589 0 19.499 4.821 36.181 14.507 50.048 12.459 17.792 30.848 26.667 55.168 26.667zM286.336 93.141c17.195 0 29.653 6.144 37.291 18.432 7.723 12.373 11.605 26.581 11.605 42.624 0 16.939-4.48 30.592-13.355 40.917-8.832 10.325-20.907 15.488-36.309 15.488-14.933 0-27.093-5.12-36.523-15.36-9.387-10.24-14.123-25.344-14.123-45.269 0-16 4.011-29.44 12.075-40.448 8.107-10.923 21.205-16.384 39.339-16.384zM433.749 96.555c6.613 0 12.075 0.725 16.299 2.091 7.852 2.747 14.281 7.906 18.56 14.577l0.086 0.143c3.84 5.803 6.656 13.269 8.363 22.357 0.89 4.537 1.416 9.769 1.451 15.118v0.029c0 17.835-3.541 31.701-10.667 41.6-7.083 9.856-18.517 14.805-34.261 14.805h-34.645v-110.72h34.816zM379.307 224.128h58.368c19.84 0 35.2-7.040 46.123-21.12 9.771-12.672 14.635-28.971 14.635-48.768 0-15.36-2.859-29.141-8.619-41.515-10.155-21.845-27.605-32.811-52.309-32.811h-58.197v144.213zM544.853 224.128v-89.131c0-10.453 1.963-19.2 5.888-26.112 5.803-10.453 15.659-15.701 29.44-15.701 16.555 0 27.819 5.675 33.749 16.981 3.243 6.144 4.821 14.421 4.821 24.832v89.131h19.84v-80.981c0-17.707-2.389-31.36-7.168-40.96-8.789-17.365-25.344-26.027-49.664-26.027s-40.875 8.661-49.579 26.027c-4.779 9.6-7.168 23.253-7.168 40.96v80.981h19.84zM688.085 224.128v-127.019h73.003v-17.152h-92.587v144.171h19.584zM782.293 224.128h105.088v-17.664h-86.059v-43.776h79.573v-16.683h-79.573v-48.896h87.552v-17.152h-106.581v144.171zM927.445 126.421c0.427-8.107 2.389-14.805 5.76-19.883 6.485-9.557 17.92-14.336 34.261-14.336 7.339 0 13.995 1.067 20.053 3.157 11.605 4.053 17.451 11.307 17.451 21.76 0 7.851-2.475 13.44-7.381 16.811-4.949 3.243-12.757 6.101-23.339 8.533l-19.541 4.395c-12.757 2.901-21.76 6.059-27.093 9.515-9.173 6.016-13.739 15.019-13.739 27.008 0 12.971 4.48 23.595 13.44 31.915 8.96 8.277 21.675 12.459 38.101 12.459 15.104 0 27.947-3.669 38.443-11.008 10.624-7.253 15.915-18.901 15.915-34.944h-18.347c-0.525 6.689-2.795 12.759-6.35 17.868l0.078-0.118c-5.973 7.552-16.085 11.307-30.336 11.307-11.52 0-19.797-2.432-24.832-7.253-4.638-4.175-7.543-10.195-7.552-16.894v-0.002c0-7.040 2.944-12.245 8.832-15.488 3.84-2.133 12.587-4.693 26.197-7.851l20.224-4.608c9.728-2.261 17.28-5.291 22.571-9.131 9.173-6.741 13.739-16.555 13.739-29.355 0-15.957-5.803-27.392-17.493-34.261-11.103-6.478-24.441-10.302-38.673-10.302-0.609 0-1.217 0.007-1.822 0.021l0.090-0.002c-17.92 0-32 4.565-42.112 13.739-10.155 9.088-15.104 21.419-14.933 36.992h18.347z" />
<glyph unicode="&#xe911;" glyph-name="whatsapp" d="M745.471 346.367c-12.672 6.357-75.008 36.992-86.613 41.259-11.648 4.224-20.096 6.315-28.587-6.4-8.405-12.672-32.725-41.216-40.107-49.664-7.381-8.491-14.805-9.515-27.477-3.2-12.672 6.4-53.547 19.755-101.973 62.933-37.675 33.621-63.147 75.136-70.528 87.851-7.381 12.672-0.768 19.541 5.547 25.856 5.717 5.675 12.715 14.805 19.029 22.187 6.357 7.424 8.448 12.715 12.715 21.205 4.224 8.448 2.133 15.829-1.067 22.187s-28.544 68.779-39.083 94.165c-10.325 24.704-20.779 21.333-28.544 21.76-7.381 0.341-15.829 0.427-24.32 0.427-8.448 0-22.187-3.157-33.792-15.872-11.605-12.672-44.373-43.349-44.373-105.771 0-62.379 45.44-122.667 51.755-131.157 6.357-8.448 89.429-136.533 216.619-191.445 30.251-13.056 53.845-20.864 72.277-26.667 30.379-9.685 58.027-8.32 79.829-5.035 24.363 3.627 75.008 30.677 85.589 60.288s10.581 54.997 7.381 60.288c-3.157 5.291-11.605 8.448-24.32 14.805zM514.132 30.507h-0.171c-0.010 0-0.022 0-0.034 0-79.18 0-153.256 21.853-216.527 59.856l1.905-1.061-15.403 9.131-159.616-41.899 42.581 155.648-10.027 15.957c-40.424 63.455-64.427 140.792-64.427 223.735 0 0.243 0 0.486 0.001 0.729v-0.038c0.043 232.533 189.269 421.716 421.887 421.716 112.64 0 218.539-43.947 298.154-123.648 76.252-75.925 123.437-180.989 123.437-297.073 0-0.47-0.001-0.94-0.002-1.409v0.072c-0.128-232.533-189.312-421.716-421.759-421.716zM873.086 811.177c-91.341 91.926-217.839 148.823-357.626 148.823-0.467 0-0.933-0.001-1.4-0.002h0.072c-279.679 0-507.306-227.627-507.434-507.391 0-89.429 23.339-176.725 67.755-253.653l-72.021-262.955 269.013 70.571c70.032-38.88 153.579-61.77 242.472-61.781h0.216c279.636 0 507.306 227.627 507.434 507.434 0.002 0.463 0.002 1.012 0.002 1.56 0 139.653-56.758 266.048-148.466 357.377l-0.017 0.017z" />
<glyph unicode="&#xe912;" glyph-name="telegram" d="M509.611 960c-281.741-1.357-509.611-230.065-509.611-511.994 0-0.002 0-0.004 0-0.006v0c0-282.77 229.23-512 512-512v0c282.77 0 512 229.23 512 512v0c0 282.77-229.23 512-512 512v0c-0.355 0.001-0.775 0.001-1.195 0.001s-0.84-0.001-1.26-0.002h0.065zM721.323 651.776c4.267 0.085 13.696-0.981 19.84-5.973 3.966-3.457 6.647-8.3 7.286-13.766l0.010-0.101c0.683-3.968 1.536-13.056 0.853-20.139-7.68-80.981-41.045-277.419-58.027-368.085-7.168-38.4-21.291-51.243-34.987-52.48-29.696-2.773-52.267 19.627-81.067 38.485-45.056 29.568-70.528 47.957-114.261 76.8-50.56 33.28-17.792 51.627 11.008 81.493 7.552 7.851 138.539 127.019 141.099 137.813 0.299 1.365 0.597 6.4-2.389 9.045s-7.424 1.749-10.624 1.024c-4.523-1.024-76.501-48.64-215.936-142.72-20.48-14.080-38.955-20.907-55.552-20.48-18.261 0.341-53.419 10.283-79.573 18.773-32.085 10.453-57.557 15.957-55.339 33.664 1.152 9.216 13.867 18.645 38.101 28.288 149.248 65.024 248.747 107.904 298.581 128.597 142.165 59.136 171.733 69.419 190.976 69.76z" />
<glyph unicode="&#xe913;" glyph-name="viber" d="M486.4 960c-82.219-1.195-258.859-14.677-357.547-105.259-73.301-73.387-99.157-180.608-101.845-313.6-2.688-132.949-6.187-382.251 234.112-449.835h0.128l-0.171-103.083s-1.579-41.685 26.027-50.219c33.152-10.325 52.651 21.333 84.48 55.552 17.365 18.773 41.472 46.251 59.605 67.413 164.267-13.909 290.645 17.749 305.067 22.4 33.109 10.752 220.843 34.816 251.392 284.032 31.573 256.853-15.36 419.413-99.84 492.629-25.429 23.467-128.256 98.133-357.333 99.115 0 0-16.853 1.067-44.245 0.725zM488.875 887.765c23.253 0.171 37.547-0.725 37.547-0.725 193.792-0.853 286.592-59.221 308.139-78.763 71.467-61.227 107.947-207.701 81.323-422.272v-0.085c-25.771-208.128-178.091-221.184-206.165-230.187-11.947-3.84-122.965-31.445-262.528-22.357 0 0-103.936-125.44-136.405-158.037-5.12-5.12-11.093-7.125-15.019-6.144-5.547 1.408-7.083 8.021-7.040 17.664l0.853 171.435c-203.179 56.32-191.36 268.459-189.013 379.52 2.304 111.104 23.168 202.155 85.163 263.381 83.627 75.648 233.557 86.101 303.36 86.613zM505.088 776.747c-7.125 0-12.928-5.76-12.971-12.885 0-7.125 5.675-12.928 12.8-13.013 69.291-0.427 125.696-22.912 171.861-67.925 45.781-44.629 69.12-105.301 69.675-184.917 0.085-7.125 5.973-12.8 13.099-12.8 7.083 0.085 12.8 5.888 12.8 12.971-0.597 84.651-26.368 153.429-77.483 203.264-50.773 49.493-114.859 74.795-189.739 75.307zM336.128 747.093c-8.107 1.365-17.067-0.213-26.283-4.992l-0.427-0.085c-18.347-10.539-34.816-23.979-48.896-39.765-0.085-0.171-0.256-0.171-0.341-0.341-11.392-13.781-17.92-27.221-19.627-40.448-0.341-1.963-0.427-3.968-0.299-5.973 0-5.803 0.939-11.52 2.773-17.067l0.555-0.427c5.76-20.48 20.181-54.443 51.413-111.104 17.92-32.768 38.528-64 61.696-93.269 11.52-14.677 23.893-28.715 37.12-41.984l5.632-5.632c13.227-13.141 27.307-25.6 41.984-37.12 29.269-23.168 60.501-43.819 93.269-61.739 56.661-31.275 90.709-45.653 111.104-51.456l0.427-0.597c5.547-1.792 11.307-2.731 17.152-2.688 1.963-0.085 3.925 0 5.888 0.341 13.227 1.536 26.752 8.107 40.448 19.627 0.171 0 0.128 0.085 0.341 0.213 15.787 14.080 29.141 30.72 39.68 48.981l0.128 0.427c9.6 18.432 6.4 35.925-7.68 47.787-0.171 0-29.781 24.747-44.245 35.413-15.36 10.88-31.147 20.992-47.488 30.293-21.76 12.16-44.032 4.523-53.248-7.424l-19.072-24.064c-9.813-12.075-28.032-10.496-28.032-10.496-133.12 33.963-168.747 168.747-168.747 168.747s-1.579 18.176 10.581 27.989l24.021 19.115c11.819 9.173 19.456 31.445 7.253 53.248-9.259 16.341-19.371 32.256-30.293 47.573-10.667 14.507-35.243 44.075-35.413 44.16-5.845 7.040-13.227 11.307-21.419 12.672zM527.701 709.547c-6.741-0.085-12.373-5.291-12.8-12.032-0.427-7.125 4.907-13.312 12.032-13.824 49.493-3.627 86.059-19.883 112.853-49.067 26.88-29.355 39.68-65.024 38.656-109.653-0.085-7.168 5.547-13.056 12.8-13.227 7.083-0.128 13.013 5.547 13.227 12.672 1.067 50.133-14.251 93.568-45.525 127.744-31.573 34.56-75.819 53.461-130.133 57.429h-1.024zM547.456 640c-6.827-0.085-12.373-5.419-12.8-12.245-0.341-7.125 5.12-13.227 12.288-13.653 22.315-1.195 37.333-7.467 47.488-18.005 10.24-10.453 16.555-26.453 17.749-49.664 0.427-7.125 6.4-12.587 13.568-12.245 7.125 0.341 12.587 6.4 12.245 13.525-1.28 27.477-9.173 50.261-24.747 66.432-15.659 16.128-38.101 24.491-64.853 25.899h-0.768z" />
<glyph unicode="&#xe914;" glyph-name="linkedin" d="M872.405 87.381h-151.637v237.611c0 56.661-1.152 129.579-79.019 129.579-79.061 0-91.136-61.653-91.136-125.397v-241.792h-151.637v488.619h145.664v-66.603h1.963c20.352 38.4 69.845 78.933 143.787 78.933 153.643 0 182.059-101.12 182.059-232.747v-268.203zM227.712 642.859c-48.811 0-88.021 39.509-88.021 88.107 0 48.555 39.253 88.021 88.021 88.021 48.64 0 88.064-39.467 88.064-88.021 0-48.597-39.467-88.107-88.064-88.107zM303.744 87.381h-152.064v488.619h152.064v-488.619zM948.267 960h-872.704c-41.771 0-75.563-33.024-75.563-73.771v-876.459c0-40.789 33.792-73.771 75.563-73.771h872.576c41.728 0 75.861 32.981 75.861 73.771v876.459c0 40.747-34.133 73.771-75.861 73.771h0.128z" />
<glyph unicode="&#xe915;" glyph-name="gmail" d="M1024 727.168v-593.451c0-38.571-31.232-69.803-69.803-69.803h-162.944v395.605l-279.253-209.493-279.253 209.493v-395.648h-162.944c-38.551 0-69.803 31.252-69.803 69.803 0 0.015 0 0.030 0 0.045v-0.002 593.451c0 86.315 98.517 135.595 167.552 83.797l344.448-258.347 344.448 258.347c68.992 51.755 167.552 2.517 167.552-83.797z" />
</font>
</defs>
</svg>
